<svg xmlns="http://www.w3.org/2000/svg" width="512" height="512" viewBox="0 0 512 512">
<g>
<path d="M 2.07 482.37 C0.13,479.90 0.00,478.45 0.00,459.82 C0.00,440.01 0.01,439.90 2.45,437.45 C4.41,435.50 5.93,435.00 9.95,435.00 L 15.00 435.00 L 15.00 226.00 L 9.57 226.00 C4.90,226.00 3.86,225.63 2.07,223.37 C0.03,220.77 0.00,219.89 0.00,163.32 L 0.00 105.91 L 4.91 101.00 L 173.57 101.00 L 175.36 92.13 C181.53,61.61 204.08,37.55 234.71,28.79 C245.86,25.60 266.14,25.60 277.29,28.79 C307.86,37.53 330.48,61.68 336.64,92.13 L 338.43 101.00 L 507.09 101.00 L 509.55 103.45 L 512.00 105.91 L 512.00 163.32 C512.00,219.89 511.97,220.77 509.93,223.37 C508.14,225.63 507.10,226.00 502.43,226.00 L 497.00 226.00 L 497.00 435.00 L 502.05 435.00 C506.07,435.00 507.59,435.50 509.55,437.45 C511.99,439.90 512.00,440.01 512.00,459.82 C512.00,478.45 511.87,479.90 509.93,482.37 L 507.85 485.00 L 4.15 485.00 ZM 193.00 450.00 L 193.00 470.00 L 497.00 470.00 L 497.00 450.00 L 253.91 450.00 L 251.45 447.55 C250.10,446.20 249.00,443.92 249.00,442.50 C249.00,441.08 250.10,438.80 251.45,437.45 L 253.91 435.00 L 482.00 435.00 L 482.00 227.00 L 30.00 227.00 L 30.00 435.00 L 55.00 435.00 L 55.00 346.61 C55.00,261.08 55.06,258.15 56.91,255.86 L 58.82 253.50 L 122.16 253.22 C157.00,253.06 186.50,253.18 187.73,253.48 C188.42,253.65 189.02,253.76 189.54,254.03 C193.09,255.84 193.00,264.79 193.00,347.45 L 193.00 435.00 L 224.85 435.00 L 226.93 437.63 C229.68,441.13 229.55,444.55 226.55,447.55 C224.15,449.94 223.72,450.00 208.55,450.00 L 193.00 450.00 ZM 246.50 175.06 C253.04,176.12 265.96,175.32 273.50,173.37 C290.72,168.94 307.92,154.95 315.76,139.00 C320.99,128.34 322.97,119.98 322.97,108.50 C322.97,91.14 317.00,75.64 305.54,63.26 C283.73,39.71 249.98,34.46 222.00,50.25 C213.74,54.91 201.15,68.07 196.68,76.70 C186.39,96.54 186.40,120.55 196.70,140.30 C202.02,150.51 213.93,162.24 224.50,167.69 C232.75,171.94 237.86,173.66 246.50,175.06 ZM 425.68 387.44 C422.89,389.48 421.88,389.50 338.68,389.74 L 254.50 389.99 L 250.59 387.74 C242.55,383.12 242.54,383.08 242.20,354.25 C242.00,336.68 242.26,327.79 243.05,325.89 C245.01,321.14 252.99,320.07 255.65,324.19 C256.12,324.91 256.73,336.52 257.00,350.00 L 257.50 374.50 L 284.13 374.77 L 310.75 375.03 L 311.21 363.27 C311.52,355.25 312.22,350.23 313.39,347.50 C317.39,338.17 327.06,332.03 337.78,332.01 C345.10,332.00 349.21,333.49 354.38,338.03 C360.95,343.80 362.40,347.83 362.98,362.00 L 363.50 374.50 L 390.12 374.77 L 416.74 375.03 L 417.37 371.89 C418.18,367.87 418.17,273.25 417.37,270.25 L 416.77 268.00 L 257.00 268.00 L 257.00 282.50 C257.00,295.67 256.82,297.18 255.00,299.00 C252.19,301.81 247.48,301.58 244.39,298.48 C241.87,295.96 241.87,295.94 242.18,279.55 C242.53,261.65 242.90,260.40 249.38,255.56 C252.11,253.52 253.08,253.50 336.05,253.23 C414.88,252.97 423.49,252.70 427.51,256.86 C428.23,257.61 428.81,258.50 429.62,259.57 L 432.50 263.34 L 432.78 319.92 L 433.05 376.50 L 430.78 380.94 C429.52,383.38 427.23,386.31 425.68,387.44 ZM 95.68 445.35 C96.06,445.72 108.99,445.91 124.43,445.77 L 152.50 445.50 L 152.50 293.50 L 123.75 293.23 L 95.00 292.97 L 95.00 368.82 C95.00,410.53 95.31,444.97 95.68,445.35 ZM 15.00 116.00 L 15.00 211.00 L 50.00 211.00 L 50.00 195.81 C50.00,181.60 50.14,180.48 52.17,178.31 C55.25,175.04 60.22,175.19 62.93,178.63 C64.81,181.03 65.00,182.61 65.00,196.13 L 65.00 211.00 L 99.00 211.00 L 99.00 116.00 L 65.00 116.00 L 65.00 133.55 C65.00,150.84 64.96,151.13 62.55,153.55 C59.42,156.67 55.58,156.67 52.45,153.55 C50.04,151.13 50.00,150.84 50.00,133.55 L 50.00 116.00 L 15.00 116.00 ZM 270.47 156.31 C265.38,158.74 246.87,158.70 242.07,156.25 C236.02,153.16 234.54,150.05 234.16,139.52 L 233.81 130.18 L 213.84 129.50 L 210.42 125.76 L 207.00 122.03 L 207.00 94.76 L 214.76 87.00 L 234.00 87.00 L 234.00 78.75 C234.00,69.10 235.73,64.72 240.90,61.27 C243.95,59.23 245.50,59.00 256.00,59.00 C266.50,59.00 268.05,59.23 271.10,61.27 C276.27,64.72 278.00,69.10 278.00,78.75 L 278.00 87.00 L 287.25 87.01 C294.71,87.01 297.07,87.39 299.43,88.95 C304.30,92.15 304.93,94.35 304.96,108.35 C305.02,127.33 302.82,130.00 287.10,130.00 L 278.00 130.00 L 278.00 138.18 C278.00,148.36 275.74,153.80 270.47,156.31 ZM 70.00 268.00 L 70.00 470.00 L 177.00 470.00 L 177.00 408.00 L 167.00 408.00 L 167.00 432.00 C167.00,454.67 166.89,456.11 165.00,458.00 C163.07,459.93 161.67,460.00 123.57,460.00 L 84.15 460.00 L 82.07 457.37 C80.01,454.75 80.00,454.22 80.00,368.82 L 80.00 282.91 L 82.45 280.45 L 84.91 278.00 L 123.32 278.00 C160.66,278.00 161.80,278.06 164.37,280.07 L 167.00 282.15 L 167.00 330.00 L 177.00 330.00 L 177.00 268.00 L 70.00 268.00 ZM 114.00 116.00 L 114.00 211.00 L 149.00 211.00 L 149.00 116.00 L 114.00 116.00 ZM 363.00 116.00 L 363.00 211.00 L 398.00 211.00 L 398.00 116.00 L 363.00 116.00 ZM 462.00 116.00 L 462.00 211.00 L 497.00 211.00 L 497.00 116.00 L 462.00 116.00 ZM 413.00 116.00 L 413.00 211.00 L 447.00 211.00 L 447.00 116.00 L 413.00 116.00 ZM 361.50 320.66 C358.24,322.09 354.17,322.46 339.50,322.64 C329.60,322.76 320.60,322.64 319.50,322.37 C313.48,320.87 310.48,319.48 307.36,316.74 C293.36,304.45 299.04,281.95 317.10,278.07 C323.10,276.78 352.94,276.68 358.32,277.93 C368.04,280.19 375.02,289.28 374.98,299.64 C374.94,309.45 370.22,316.82 361.50,320.66 ZM 164.00 116.00 L 164.00 211.00 L 199.00 211.00 L 199.00 167.78 L 194.07 162.39 C184.67,152.10 177.47,137.13 174.94,122.60 L 173.79 116.00 L 164.00 116.00 ZM 313.00 169.05 L 313.00 211.00 L 348.00 211.00 L 348.00 116.00 L 343.00 116.00 C338.42,116.00 338.00,116.20 338.00,118.34 C338.00,123.23 333.85,136.83 329.91,144.84 C327.66,149.43 322.93,156.75 319.41,161.11 L 313.00 169.05 ZM 250.00 134.52 L 250.00 143.10 L 262.50 142.50 L 263.00 132.35 C263.41,124.06 263.87,121.80 265.50,120.00 C269.07,116.06 272.45,115.00 281.45,115.00 L 290.00 115.00 L 290.00 102.00 L 281.45 102.00 C272.09,102.00 268.55,100.79 265.09,96.39 C263.31,94.12 263.00,92.35 263.00,84.37 L 263.00 75.00 L 250.00 75.00 L 250.00 83.03 C250.00,98.22 246.27,101.99 231.25,102.00 L 222.00 102.00 L 222.00 115.00 L 231.25 115.00 C246.43,115.01 250.00,118.73 250.00,134.52 ZM 214.00 195.50 L 214.00 211.00 L 230.98 211.00 C241.92,211.00 246.36,211.31 248.06,209.30 C249.43,207.68 249.02,204.56 248.80,198.56 L 248.50 190.63 L 241.50 189.40 C233.78,188.05 225.63,185.38 219.24,182.12 C216.95,180.96 214.84,180.00 214.54,180.00 C214.24,180.00 214.00,186.98 214.00,195.50 ZM 263.47 208.75 C264.03,210.97 264.24,211.00 281.02,211.00 L 298.00 211.00 L 298.00 195.42 C298.00,186.85 297.66,180.01 297.25,180.22 C287.00,185.46 276.89,188.87 268.52,189.89 L 263.50 190.50 L 263.20 198.50 C263.04,202.89 263.16,207.51 263.47,208.75 ZM 15.00 450.00 L 15.00 470.00 L 55.00 470.00 L 55.00 450.00 L 15.00 450.00 ZM 327.00 363.92 L 327.00 375.00 L 348.00 375.00 L 348.00 363.92 C348.00,353.01 347.96,352.80 345.08,349.92 C342.68,347.53 341.31,347.00 337.50,347.00 C333.69,347.00 332.32,347.53 329.92,349.92 C327.04,352.80 327.00,353.01 327.00,363.92 ZM 168.00 346.00 L 168.00 393.00 L 177.00 393.00 L 177.00 346.00 L 168.00 346.00 ZM 316.07 304.37 C317.90,306.68 318.86,307.00 324.07,307.00 L 330.00 307.00 L 330.00 292.00 L 325.55 292.00 C319.96,292.00 316.54,293.53 315.11,296.66 C313.55,300.08 313.71,301.36 316.07,304.37 ZM 345.00 292.00 L 345.00 307.00 L 350.50 307.00 C357.18,307.00 360.00,304.79 360.00,299.57 C360.00,294.76 356.31,292.00 349.87,292.00 L 345.00 292.00 Z" fill="rgba(0,0,0,1)"/>
<path d="M 462.00 116.00 L 497.00 116.00 L 497.00 211.00 L 462.00 211.00 L 462.00 116.00 ZM 70.00 458.00 L 80.50 458.00 L 80.48 450.09 C80.78,455.64 81.27,456.34 82.07,457.37 L 84.15 460.00 L 123.57 460.00 C161.67,460.00 163.07,459.93 165.00,458.00 C166.89,456.11 167.00,454.67 167.00,432.00 L 167.00 408.00 L 177.00 408.00 L 177.00 470.00 L 70.00 470.00 L 70.00 458.00 ZM 145.00 273.00 L 145.00 268.00 L 177.00 268.00 L 177.00 330.00 L 167.00 330.00 L 167.00 282.15 L 164.37 280.07 C161.80,278.06 160.66,278.00 123.32,278.00 L 145.00 278.00 L 145.00 273.00 ZM 413.00 198.04 L 415.75 197.43 C425.23,195.33 434.20,191.07 441.80,185.06 L 447.00 180.95 L 447.00 211.00 L 413.00 211.00 L 413.00 198.04 ZM 114.00 116.00 L 115.00 116.00 L 115.00 199.00 L 149.00 199.00 L 149.00 211.00 L 114.00 211.00 L 114.00 116.00 ZM 363.00 199.00 L 397.00 199.00 L 397.00 116.00 L 398.00 116.00 L 398.00 211.00 L 363.00 211.00 L 363.00 199.00 ZM 313.69 198.36 C314.07,198.74 321.83,198.92 330.94,198.77 L 347.50 198.50 L 347.76 157.25 L 348.00 119.51 L 348.00 211.00 L 313.00 211.00 L 313.00 183.36 C313.00,191.23 313.31,197.98 313.69,198.36 ZM 164.69 198.36 C165.07,198.74 172.83,198.92 181.94,198.77 L 198.50 198.50 L 198.78 183.17 L 199.00 170.78 L 199.00 211.00 L 164.00 211.00 L 164.00 156.83 C164.00,179.29 164.31,197.98 164.69,198.36 ZM 15.00 199.00 L 48.80 199.00 L 49.15 190.08 C49.46,182.28 49.81,180.83 51.92,178.58 C51.97,178.53 52.01,178.49 52.05,178.45 C50.13,180.53 50.00,181.89 50.00,195.81 L 50.00 211.00 L 15.00 211.00 L 15.00 199.00 ZM 241.50 189.40 L 248.50 190.63 L 248.80 198.56 C249.02,204.56 249.43,207.68 248.06,209.30 C246.36,211.31 241.92,211.00 230.98,211.00 L 214.00 211.00 L 214.00 199.00 L 248.00 199.00 L 248.00 195.07 C248.00,190.88 247.85,190.77 241.00,189.50 C239.09,189.15 236.58,188.50 233.91,187.69 C236.44,188.38 238.99,188.96 241.50,189.40 ZM 263.47 208.75 C263.16,207.51 263.04,202.89 263.20,198.50 L 263.50 190.50 L 268.52 189.89 C269.56,189.76 270.62,189.60 271.71,189.40 C270.11,189.77 268.46,190.13 266.75,190.48 C264.30,190.98 264.00,191.48 264.00,195.02 L 264.00 199.00 L 298.00 199.00 L 298.00 211.00 L 281.02 211.00 C264.24,211.00 264.03,210.97 263.47,208.75 ZM 65.00 199.00 L 99.00 199.00 L 99.00 211.00 L 65.00 211.00 L 65.00 199.00 ZM 63.77 179.89 C64.78,181.74 65.00,184.09 65.00,190.13 L 65.00 196.13 C65.00,184.98 64.87,181.95 63.77,179.89 ZM 80.00 282.91 L 80.00 296.71 L 79.96 282.95 L 80.00 282.91 ZM 59.22 155.64 C58.59,155.87 58.00,156.00 57.50,156.00 C57.00,156.00 56.41,155.87 55.78,155.64 C56.92,155.98 58.08,155.98 59.22,155.64 ZM 56.88 175.98 C59.12,175.74 61.35,176.63 62.93,178.63 C61.39,176.68 59.12,175.79 56.88,175.98 ZM 216.44 180.76 C215.42,180.30 214.70,180.01 214.54,180.00 L 214.54 180.00 C214.71,180.00 215.43,180.30 216.44,180.76 Z" fill="rgba(41,161,149,1)"/>
<path d="M 246.50 175.06 C237.86,173.66 232.75,171.94 224.50,167.69 C213.93,162.24 202.02,150.51 196.70,140.30 C186.40,120.55 186.39,96.54 196.68,76.70 C201.15,68.07 213.74,54.91 222.00,50.25 C249.98,34.46 283.73,39.71 305.54,63.26 C317.00,75.64 322.97,91.14 322.97,108.50 C322.97,119.98 320.99,128.34 315.76,139.00 C307.92,154.95 290.72,168.94 273.50,173.37 C265.96,175.32 253.04,176.12 246.50,175.06 ZM 270.47 156.31 C275.74,153.80 278.00,148.36 278.00,138.18 L 278.00 130.00 L 287.10 130.00 C302.82,130.00 305.02,127.33 304.96,108.35 C304.93,94.35 304.30,92.15 299.43,88.95 C297.07,87.39 294.71,87.01 287.25,87.01 L 278.00 87.00 L 278.00 78.75 C278.00,69.10 276.27,64.72 271.10,61.27 C268.05,59.23 266.50,59.00 256.00,59.00 C245.50,59.00 243.95,59.23 240.90,61.27 C235.73,64.72 234.00,69.10 234.00,78.75 L 234.00 87.00 L 214.76 87.00 L 207.00 94.76 L 207.00 122.03 L 210.42 125.76 L 213.84 129.50 L 233.81 130.18 L 234.16 139.52 C234.54,150.05 236.02,153.16 242.07,156.25 C246.87,158.70 265.38,158.74 270.47,156.31 ZM 229.00 441.63 C229.00,442.69 231.14,443.00 238.47,443.00 L 247.95 443.00 L 249.48 440.03 C250.29,438.47 251.74,436.77 252.79,436.12 L 251.45 437.45 C250.10,438.80 249.00,441.08 249.00,442.50 C249.00,443.92 250.10,446.20 251.45,447.55 L 253.91 450.00 L 497.00 450.00 L 497.00 470.00 L 193.00 470.00 L 193.00 450.00 L 208.55 450.00 C223.72,450.00 224.15,449.94 226.55,447.55 C229.54,444.55 229.68,441.14 226.94,437.65 C228.07,439.09 229.00,440.89 229.00,441.63 ZM 15.00 116.00 L 50.00 116.00 L 50.00 133.55 C50.00,150.84 50.04,151.13 52.45,153.55 C53.80,154.90 56.08,156.00 57.50,156.00 C58.92,156.00 61.20,154.90 62.55,153.55 C64.96,151.13 65.00,150.84 65.00,133.55 L 65.00 116.00 L 99.00 116.00 L 99.00 199.00 L 65.00 199.00 L 65.00 190.13 C65.00,182.68 64.67,180.85 62.93,178.63 C60.12,175.07 55.25,175.04 51.92,178.58 C49.81,180.83 49.46,182.28 49.15,190.08 L 48.80 199.00 L 15.00 199.00 L 15.00 116.00 ZM 115.00 116.00 L 149.00 116.00 L 149.00 199.00 L 115.00 199.00 L 115.00 116.00 ZM 363.00 116.00 L 397.00 116.00 L 397.00 199.00 L 363.00 199.00 L 363.00 116.00 ZM 70.00 268.00 L 145.00 268.00 L 145.00 278.00 L 84.91 278.00 L 82.43 280.48 L 79.96 282.95 L 80.23 370.48 L 80.50 458.00 L 70.00 458.00 L 70.00 268.00 ZM 413.00 116.00 L 447.00 116.00 L 447.00 180.95 L 441.80 185.06 C434.20,191.07 425.23,195.33 415.75,197.43 L 413.00 198.04 L 413.00 116.00 ZM 164.69 198.36 C164.31,197.98 164.00,179.29 164.00,156.83 L 164.00 116.00 L 173.79 116.00 L 174.94 122.60 C177.48,137.15 184.67,152.10 194.10,162.42 L 199.05 167.84 L 198.78 183.17 L 198.50 198.50 L 181.94 198.77 C172.83,198.92 165.07,198.74 164.69,198.36 ZM 313.69 198.36 C313.31,197.98 313.00,191.23 313.00,183.36 L 313.00 169.05 L 319.41 161.11 C322.93,156.75 327.66,149.43 329.91,144.84 C333.85,136.83 338.00,123.23 338.00,118.34 C338.00,116.20 338.42,116.00 343.01,116.00 L 348.02 116.00 L 347.76 157.25 L 347.50 198.50 L 330.94 198.77 C321.83,198.92 314.07,198.74 313.69,198.36 ZM 15.00 450.00 L 55.00 450.00 L 55.00 470.00 L 15.00 470.00 L 15.00 450.00 ZM 214.00 189.50 C214.00,184.27 214.24,180.00 214.53,180.00 C214.83,180.00 217.19,181.06 219.78,182.36 C224.93,184.94 235.47,188.49 241.00,189.50 C247.85,190.77 248.00,190.88 248.00,195.07 L 248.00 199.00 L 214.00 199.00 ZM 264.00 195.02 C264.00,191.48 264.30,190.98 266.75,190.48 C278.83,188.03 288.04,184.93 297.25,180.22 C297.66,180.01 298.00,184.15 298.00,189.42 L 298.00 199.00 L 264.00 199.00 ZM 168.00 346.00 L 177.00 346.00 L 177.00 393.00 L 168.00 393.00 L 168.00 346.00 ZM 316.07 304.37 C313.71,301.36 313.55,300.08 315.11,296.66 C316.54,293.53 319.96,292.00 325.55,292.00 L 330.00 292.00 L 330.00 307.00 L 324.07 307.00 C318.86,307.00 317.90,306.68 316.07,304.37 ZM 345.00 292.00 L 349.87 292.00 C356.31,292.00 360.00,294.76 360.00,299.57 C360.00,304.79 357.18,307.00 350.50,307.00 L 345.00 307.00 L 345.00 292.00 Z" fill="rgba(140,156,143,1)"/>
<path d="M 243.77 324.62 C244.53,323.23 245.60,322.64 247.09,322.12 L 250.00 321.10 L 249.99 311.80 L 249.98 302.50 L 246.51 300.25 C245.54,299.63 244.59,298.78 243.85,297.93 C244.01,298.10 244.19,298.28 244.39,298.48 C247.48,301.58 252.19,301.81 255.00,299.00 C256.82,297.18 257.00,295.67 257.00,282.50 L 257.00 268.00 L 416.77 268.00 L 417.37 270.25 C418.17,273.25 418.18,367.87 417.37,371.89 L 416.74 375.03 L 390.12 374.77 L 363.50 374.50 L 362.98 362.00 C362.40,347.83 360.95,343.80 354.38,338.03 C349.21,333.49 345.10,332.00 337.78,332.01 C327.06,332.03 317.39,338.17 313.39,347.50 C312.22,350.23 311.52,355.25 311.21,363.27 L 310.75 375.03 L 284.13 374.77 L 257.50 374.50 L 257.00 350.00 C256.73,336.52 256.12,324.91 255.65,324.19 C253.25,320.46 246.50,320.98 243.77,324.62 ZM 229.00 441.63 C229.00,440.88 228.07,439.08 226.93,437.63 L 224.85 435.00 L 193.00 435.00 L 193.00 423.09 L 289.75 422.75 C379.99,422.44 386.94,422.29 393.00,420.58 C424.18,411.77 445.42,387.34 448.99,356.19 C449.54,351.37 449.99,320.69 449.99,287.25 L 450.00 227.00 L 482.00 227.00 L 482.00 435.00 L 368.43 435.00 C292.46,435.00 254.23,435.34 252.94,436.03 C251.89,436.60 250.33,438.40 249.48,440.03 L 247.95 443.00 L 238.47 443.00 C231.14,443.00 229.00,442.69 229.00,441.63 ZM 95.68 445.35 C95.31,444.97 95.00,410.53 95.00,368.82 L 95.00 292.97 L 123.75 293.23 L 152.50 293.50 L 152.50 445.50 L 124.43 445.77 C108.99,445.91 96.06,445.72 95.68,445.35 ZM 361.50 320.66 C370.22,316.82 374.94,309.45 374.98,299.64 C375.02,289.28 368.04,280.19 358.32,277.93 C352.94,276.68 323.10,276.78 317.10,278.07 C299.04,281.95 293.36,304.45 307.36,316.74 C310.48,319.48 313.48,320.87 319.50,322.37 C320.60,322.64 329.60,322.76 339.50,322.64 C354.17,322.46 358.24,322.09 361.50,320.66 ZM 327.00 363.92 C327.00,353.01 327.04,352.80 329.92,349.92 C332.32,347.53 333.69,347.00 337.50,347.00 C341.31,347.00 342.68,347.53 345.08,349.92 C347.96,352.80 348.00,353.01 348.00,363.92 L 348.00 375.00 L 327.00 375.00 ZM 55.00 423.00 L 55.00 435.00 L 30.00 435.00 L 30.00 423.00 L 55.00 423.00 ZM 193.00 331.86 C193.00,273.30 192.89,259.18 190.77,255.28 C192.94,259.18 193.00,273.26 193.00,331.86 ZM 56.91 255.86 C55.11,258.09 55.00,260.94 55.00,340.61 C55.00,260.99 55.06,258.14 56.91,255.86 ZM 242.10 284.13 C242.11,282.24 242.13,280.24 242.18,278.21 C242.37,268.97 242.61,264.47 243.92,261.44 C242.59,264.58 242.38,269.37 242.18,279.55 C242.15,281.24 242.12,282.76 242.10,284.13 ZM 242.20 354.25 C242.08,343.87 242.05,337.00 242.32,332.39 C242.12,337.07 242.08,344.26 242.20,354.25 ZM 242.73 296.35 C242.60,296.09 242.50,295.86 242.45,295.64 C242.42,295.52 242.39,295.35 242.36,295.14 C242.46,295.61 242.58,296.01 242.73,296.35 Z" fill="rgba(167,219,229,1)"/>
<path d="M 30.00 325.00 L 30.00 227.00 L 240.00 227.00 L 450.00 227.00 L 449.99 287.25 C449.99,320.69 449.54,351.37 448.99,356.19 C445.42,387.34 424.18,411.77 393.00,420.58 C386.94,422.29 379.99,422.44 289.75,422.75 L 193.00 423.09 L 193.00 341.50 C193.00,253.18 193.10,254.80 187.73,253.48 C186.50,253.18 157.00,253.06 122.16,253.22 L 58.82 253.50 L 56.91 255.86 C55.06,258.14 55.00,260.99 55.00,340.61 L 55.00 423.00 L 42.50 423.00 L 30.00 423.00 L 30.00 325.00 ZM 425.68 387.44 C427.23,386.31 429.52,383.38 430.78,380.94 L 433.05 376.50 L 432.78 319.92 L 432.50 263.34 L 429.62 259.57 C424.31,252.60 429.09,252.93 336.05,253.23 C253.08,253.50 252.11,253.52 249.38,255.56 C243.00,260.33 242.53,261.80 242.18,278.21 C242.00,286.49 242.12,294.34 242.45,295.64 C242.77,296.94 244.60,299.02 246.51,300.25 L 249.98 302.50 L 249.99 311.80 L 250.00 321.10 L 247.09 322.12 C242.24,323.81 241.87,326.22 242.20,354.25 C242.54,383.08 242.55,383.12 250.59,387.74 L 254.50 389.99 L 338.68 389.74 C421.88,389.50 422.89,389.48 425.68,387.44 ZM 250.00 134.52 C250.00,118.73 246.43,115.01 231.25,115.00 L 222.00 115.00 L 222.00 108.50 L 222.00 102.00 L 231.25 102.00 C246.27,101.99 250.00,98.22 250.00,83.03 L 250.00 75.00 L 256.50 75.00 L 263.00 75.00 L 263.00 84.37 C263.00,92.35 263.31,94.12 265.09,96.39 C268.55,100.79 272.09,102.00 281.45,102.00 L 290.00 102.00 L 290.00 108.50 L 290.00 115.00 L 281.45 115.00 C272.45,115.00 269.07,116.06 265.50,120.00 C263.87,121.80 263.41,124.06 263.00,132.35 L 262.50 142.50 L 256.25 142.80 L 250.00 143.10 L 250.00 134.52 Z" fill="rgba(220,230,235,1)"/>
</g>
</svg>